<svg xmlns="http://www.w3.org/2000/svg" xmlns:xlink="http://www.w3.org/1999/xlink" width="500" zoomAndPan="magnify" viewBox="0 0 375 374.999991" height="500" preserveAspectRatio="xMidYMid meet" version="1.0"><defs><g/><clipPath id="bf08c4ed50"><path d="M 54 129 L 159 129 L 159 180 L 54 180 Z M 54 129 " clip-rule="nonzero"/></clipPath><clipPath id="392fdaafc8"><path d="M 18.378906 141.539062 L 146.4375 63.429688 L 198.769531 149.230469 L 70.710938 227.339844 Z M 18.378906 141.539062 " clip-rule="nonzero"/></clipPath><clipPath id="33d890dda2"><path d="M 18.378906 141.539062 L 146.4375 63.429688 L 198.769531 149.230469 L 70.710938 227.339844 Z M 18.378906 141.539062 " clip-rule="nonzero"/></clipPath><clipPath id="bc09ecf0e6"><path d="M 73 138 L 154 138 L 154 193 L 73 193 Z M 73 138 " clip-rule="nonzero"/></clipPath><clipPath id="d590e7af52"><path d="M 18.378906 141.539062 L 146.4375 63.429688 L 198.769531 149.230469 L 70.710938 227.339844 Z M 18.378906 141.539062 " clip-rule="nonzero"/></clipPath><clipPath id="72b5d25947"><path d="M 18.378906 141.539062 L 146.4375 63.429688 L 198.769531 149.230469 L 70.710938 227.339844 Z M 18.378906 141.539062 " clip-rule="nonzero"/></clipPath><clipPath id="76e7fdc3e7"><path d="M 88 92 L 174 92 L 174 168 L 88 168 Z M 88 92 " clip-rule="nonzero"/></clipPath><clipPath id="907f851b44"><path d="M 18.378906 141.539062 L 146.4375 63.429688 L 198.769531 149.230469 L 70.710938 227.339844 Z M 18.378906 141.539062 " clip-rule="nonzero"/></clipPath><clipPath id="111be2a1f8"><path d="M 18.378906 141.539062 L 146.4375 63.429688 L 198.769531 149.230469 L 70.710938 227.339844 Z M 18.378906 141.539062 " clip-rule="nonzero"/></clipPath><clipPath id="ba33169534"><path d="M 37 113 L 117 113 L 117 209 L 37 209 Z M 37 113 " clip-rule="nonzero"/></clipPath><clipPath id="474837c460"><path d="M 18.378906 141.539062 L 146.4375 63.429688 L 198.769531 149.230469 L 70.710938 227.339844 Z M 18.378906 141.539062 " clip-rule="nonzero"/></clipPath><clipPath id="dbd324ce18"><path d="M 18.378906 141.539062 L 146.4375 63.429688 L 198.769531 149.230469 L 70.710938 227.339844 Z M 18.378906 141.539062 " clip-rule="nonzero"/></clipPath><clipPath id="00bf8d5dc4"><path d="M 112.5 120.34375 L 261 120.34375 L 261 254.59375 L 112.5 254.59375 Z M 112.5 120.34375 " clip-rule="nonzero"/></clipPath><clipPath id="cd7fa4ddcc"><path d="M 141 159 L 262.5 159 L 262.5 210 L 141 210 Z M 141 159 " clip-rule="nonzero"/></clipPath></defs><rect x="-37.5" width="450" fill="#ffffff" y="-37.499999" height="449.999989" fill-opacity="1"/><rect x="-37.5" width="450" fill="#ffffff" y="-37.499999" height="449.999989" fill-opacity="1"/><g clip-path="url(#bf08c4ed50)"><g clip-path="url(#392fdaafc8)"><g clip-path="url(#33d890dda2)"><path fill="#00bf63" d="M 56.875 160.777344 C 54.917969 156.457031 54.035156 151.671875 54.210938 146.949219 C 54.34375 147.460938 54.488281 147.972656 54.648438 148.480469 C 56.121094 153.269531 58.820312 157.683594 62.382812 161.160156 L 63.050781 161.808594 L 63.746094 162.425781 C 64.183594 162.832031 64.742188 163.25 65.257812 163.65625 C 65.542969 163.882812 65.734375 164.003906 65.953125 164.160156 L 66.597656 164.605469 L 66.867188 164.800781 L 67.417969 165.175781 C 67.664062 165.339844 67.90625 165.507812 68.160156 165.664062 C 70.152344 166.949219 72.289062 168.058594 74.523438 168.9375 C 76.757812 169.820312 79.097656 170.453125 81.460938 170.828125 C 83.824219 171.203125 86.207031 171.300781 88.539062 171.171875 C 89.011719 171.148438 89.476562 171.113281 89.941406 171.066406 C 90.589844 171.039062 91.242188 170.988281 91.894531 170.910156 C 94.273438 170.621094 96.636719 170.003906 98.949219 169.144531 C 99.882812 168.835938 100.804688 168.503906 101.707031 168.148438 C 105.769531 166.535156 109.472656 164.449219 112.910156 162.195312 C 116.335938 159.929688 119.503906 157.484375 122.441406 154.941406 C 123.179688 154.308594 123.894531 153.667969 124.609375 153.023438 C 124.964844 152.699219 125.324219 152.371094 125.675781 152.042969 C 126.015625 151.726562 126.355469 151.410156 126.691406 151.089844 C 127.359375 150.457031 128.023438 149.824219 128.679688 149.199219 C 129.335938 148.578125 129.984375 147.972656 130.632812 147.371094 C 133.230469 144.976562 135.796875 142.75 138.402344 140.742188 C 141.011719 138.742188 143.632812 136.941406 146.246094 135.339844 C 148.855469 133.738281 151.449219 132.335938 153.96875 131.082031 C 155.40625 130.367188 156.816406 129.707031 158.195312 129.089844 C 156.667969 129.984375 155.101562 130.945312 153.507812 131.984375 C 151.152344 133.519531 148.738281 135.214844 146.332031 137.109375 C 143.921875 139 141.527344 141.09375 139.167969 143.382812 C 136.8125 145.679688 134.519531 148.191406 132.21875 150.871094 C 131.644531 151.539062 131.070312 152.21875 130.492188 152.910156 C 129.910156 153.609375 129.324219 154.3125 128.734375 155.019531 C 128.4375 155.375 128.136719 155.730469 127.839844 156.082031 C 127.523438 156.449219 127.207031 156.8125 126.890625 157.179688 C 126.257812 157.902344 125.617188 158.621094 124.960938 159.335938 C 122.339844 162.203125 119.472656 165 116.332031 167.648438 C 113.183594 170.285156 109.746094 172.785156 105.894531 174.855469 C 102.054688 176.925781 97.785156 178.59375 93.171875 179.390625 C 90.867188 179.785156 88.488281 179.964844 86.097656 179.867188 C 83.707031 179.769531 81.3125 179.410156 78.988281 178.792969 C 76.664062 178.183594 74.414062 177.328125 72.289062 176.28125 C 72.019531 176.152344 71.757812 176.015625 71.492188 175.882812 L 71.101562 175.675781 L 70.90625 175.570312 L 70.613281 175.410156 L 69.917969 175.042969 C 69.683594 174.914062 69.480469 174.816406 69.171875 174.621094 C 68.613281 174.277344 68.007812 173.925781 67.527344 173.574219 L 66.761719 173.042969 L 66.027344 172.472656 C 62.089844 169.4375 58.894531 165.363281 56.875 160.777344 " fill-opacity="1" fill-rule="nonzero"/></g></g></g><g clip-path="url(#bc09ecf0e6)"><g clip-path="url(#d590e7af52)"><g clip-path="url(#72b5d25947)"><path fill="#7ed957" d="M 73.902344 185.648438 L 74.207031 185.792969 L 74.410156 185.890625 L 74.816406 186.074219 C 75.09375 186.195312 75.363281 186.320312 75.640625 186.4375 C 77.847656 187.375 80.167969 188.113281 82.550781 188.605469 C 84.929688 189.101562 87.367188 189.332031 89.789062 189.300781 C 92.207031 189.269531 94.601562 188.957031 96.90625 188.429688 C 101.523438 187.371094 105.742188 185.453125 109.507812 183.152344 C 113.285156 180.847656 116.617188 178.132812 119.65625 175.300781 C 122.683594 172.449219 125.421875 169.472656 127.914062 166.433594 C 128.539062 165.671875 129.144531 164.910156 129.746094 164.148438 C 130.046875 163.761719 130.34375 163.375 130.640625 162.988281 C 130.921875 162.613281 131.207031 162.238281 131.488281 161.863281 C 132.042969 161.117188 132.597656 160.375 133.148438 159.636719 C 133.691406 158.90625 134.238281 158.1875 134.78125 157.480469 C 136.957031 154.648438 139.136719 151.984375 141.386719 149.539062 C 143.644531 147.097656 145.949219 144.851562 148.277344 142.808594 C 150.050781 141.25 151.832031 139.808594 153.597656 138.46875 C 153.070312 139.003906 152.546875 139.550781 152.023438 140.113281 C 149.910156 142.375 147.835938 144.835938 145.828125 147.488281 C 143.828125 150.144531 141.925781 153.007812 140.039062 156.042969 C 139.566406 156.800781 139.097656 157.566406 138.625 158.347656 C 138.148438 159.136719 137.671875 159.929688 137.191406 160.730469 C 136.949219 161.128906 136.703125 161.53125 136.460938 161.929688 C 136.203125 162.34375 135.941406 162.757812 135.683594 163.171875 C 135.160156 163.992188 134.632812 164.808594 134.085938 165.628906 C 131.90625 168.894531 129.472656 172.128906 126.738281 175.261719 C 123.996094 178.382812 120.945312 181.410156 117.417969 184.078125 C 113.894531 186.738281 109.882812 189.0625 105.394531 190.570312 C 103.152344 191.320312 100.800781 191.867188 98.394531 192.136719 C 95.992188 192.40625 93.539062 192.417969 91.125 192.160156 C 88.707031 191.90625 86.328125 191.398438 84.035156 190.679688 C 83.75 190.59375 83.464844 190.496094 83.179688 190.402344 L 82.757812 190.257812 L 82.546875 190.183594 L 82.226562 190.066406 L 81.480469 189.804688 C 81.222656 189.714844 81.003906 189.648438 80.667969 189.5 C 80.054688 189.246094 79.398438 188.984375 78.859375 188.707031 L 78.015625 188.292969 L 77.191406 187.839844 C 75.949219 187.152344 74.753906 186.375 73.617188 185.515625 L 73.902344 185.648438 " fill-opacity="1" fill-rule="nonzero"/></g></g></g><g clip-path="url(#76e7fdc3e7)"><g clip-path="url(#907f851b44)"><g clip-path="url(#111be2a1f8)"><path fill="#ffbd59" d="M 121.738281 144.816406 L 102.414062 149.4375 L 123.460938 145.808594 L 90.90625 157.886719 L 122.738281 148.34375 L 104.925781 157.148438 L 124.636719 148.925781 L 95.585938 167.945312 L 121.800781 153.085938 C 122.351562 152.605469 122.882812 152.125 123.390625 151.671875 L 124.445312 150.703125 L 125.441406 149.765625 L 127.421875 147.878906 C 128.089844 147.25 128.746094 146.636719 129.398438 146.03125 C 132.300781 143.359375 134.878906 141.15625 137.292969 139.300781 C 139.894531 137.300781 142.585938 135.449219 145.292969 133.789062 L 145.554688 133.628906 C 147.449219 132.472656 149.410156 131.375 151.503906 130.292969 L 173.375 107.585938 L 148.839844 129.996094 L 161.066406 114.335938 L 146.875 130.296875 L 164.796875 100.554688 L 145.859375 127.863281 L 154.296875 109.871094 L 144.011719 128.589844 L 154.867188 95.609375 L 142.480469 126.445312 L 146.703125 107.03125 L 140.839844 127.566406 L 144.082031 92.996094 L 138.871094 125.816406 L 138.667969 105.945312 L 137.523438 127.273438 L 132.992188 92.847656 L 135.210938 126.003906 L 130.59375 106.679688 L 134.222656 127.726562 L 122.144531 95.175781 L 131.6875 127.003906 L 122.882812 109.191406 L 131.105469 128.902344 L 112.085938 99.855469 L 128.472656 128.761719 L 115.925781 113.355469 L 128.324219 130.742188 L 103.320312 106.65625 L 125.730469 131.191406 L 110.070312 118.960938 L 126.027344 133.15625 L 96.289062 115.234375 L 123.59375 134.167969 L 105.605469 125.730469 L 124.324219 136.019531 L 91.34375 125.164062 L 122.179688 137.550781 L 102.761719 133.328125 L 123.300781 139.191406 L 88.730469 135.949219 L 121.546875 141.160156 L 101.679688 141.363281 L 123.007812 142.507812 L 88.582031 147.039062 L 121.738281 144.816406 " fill-opacity="1" fill-rule="nonzero"/></g></g></g><g clip-path="url(#ba33169534)"><g clip-path="url(#474837c460)"><g clip-path="url(#dbd324ce18)"><path fill="#00bf63" d="M 61.179688 115.5 C 62.355469 114.78125 63.554688 114.117188 64.765625 113.507812 C 43.867188 128.695312 37.804688 157.640625 51.492188 180.082031 C 65.183594 202.523438 93.691406 210.382812 116.761719 198.757812 C 115.664062 199.554688 114.527344 200.316406 113.347656 201.035156 C 89.726562 215.441406 58.902344 207.972656 44.496094 184.351562 C 30.089844 160.730469 37.558594 129.90625 61.179688 115.5 " fill-opacity="1" fill-rule="nonzero"/></g></g></g><g clip-path="url(#00bf8d5dc4)"><path fill="#1f221d" d="M 186.859375 254.585938 C 184.1875 254.585938 181.648438 253.441406 179.882812 251.4375 C 176.277344 248.21875 112.5 190.855469 112.5 159.1875 C 112.5 138.160156 129.542969 120.824219 150.488281 120.542969 C 166.328125 120.34375 180.625 129.910156 186.597656 144.273438 C 192.566406 129.925781 206.847656 120.359375 222.664062 120.542969 C 243.984375 120.804688 260.6875 138.007812 260.691406 159.703125 C 260.695312 166.71875 257.910156 175.195312 252.421875 184.898438 C 252.027344 185.59375 251.144531 185.839844 250.445312 185.445312 C 249.746094 185.050781 249.5 184.167969 249.898438 183.46875 C 255.132812 174.207031 257.789062 166.210938 257.789062 159.703125 C 257.785156 139.613281 242.34375 123.6875 222.628906 123.445312 C 222.484375 123.441406 222.335938 123.441406 222.191406 123.441406 C 206.4375 123.441406 192.417969 133.910156 187.992188 149.035156 C 187.8125 149.652344 187.242188 150.078125 186.597656 150.078125 C 185.953125 150.078125 185.386719 149.652344 185.207031 149.035156 C 180.734375 133.753906 166.464844 123.25 150.527344 123.445312 C 131.160156 123.707031 115.402344 139.738281 115.402344 159.1875 C 115.402344 189.789062 181.214844 248.738281 181.882812 249.332031 C 181.929688 249.371094 181.972656 249.417969 182.015625 249.464844 C 183.234375 250.882812 184.980469 251.699219 186.878906 251.683594 C 188.75 251.679688 190.519531 250.859375 191.734375 249.4375 C 191.78125 249.378906 191.835938 249.328125 191.890625 249.277344 C 192.148438 249.058594 217.941406 226.800781 237.078125 202.289062 C 237.570312 201.65625 238.484375 201.542969 239.117188 202.035156 C 239.746094 202.53125 239.859375 203.441406 239.367188 204.074219 C 220.59375 228.121094 195.507812 249.984375 193.867188 251.40625 C 192.105469 253.421875 189.570312 254.578125 186.886719 254.585938 Z M 186.859375 254.585938 " fill-opacity="1" fill-rule="nonzero"/></g><g clip-path="url(#cd7fa4ddcc)"><path fill="#1f221d" d="M 192.917969 209.230469 C 192.875 209.230469 192.835938 209.230469 192.792969 209.222656 C 192.113281 209.164062 191.5625 208.640625 191.476562 207.964844 L 187 172.972656 L 183.257812 202.699219 C 183.171875 203.394531 182.597656 203.929688 181.894531 203.964844 C 181.203125 204.011719 180.566406 203.535156 180.40625 202.851562 L 177.027344 188.519531 L 174.421875 193.910156 C 174.183594 194.410156 173.671875 194.730469 173.117188 194.730469 L 143.433594 194.730469 C 142.632812 194.730469 141.984375 194.082031 141.984375 193.277344 C 141.984375 192.476562 142.632812 191.828125 143.433594 191.828125 L 172.203125 191.828125 L 176.191406 183.570312 C 176.457031 183.015625 177.046875 182.6875 177.65625 182.757812 C 178.269531 182.824219 178.769531 183.269531 178.910156 183.867188 L 181.382812 194.347656 L 185.546875 161.261719 C 185.636719 160.539062 186.253906 159.992188 186.984375 159.992188 C 187.714844 159.992188 188.332031 160.535156 188.425781 161.257812 L 193.507812 200.953125 L 197.90625 186.710938 C 198.078125 186.152344 198.574219 185.753906 199.15625 185.695312 C 199.742188 185.636719 200.300781 185.941406 200.574219 186.457031 L 202.625 190.300781 L 205.488281 181.699219 C 205.675781 181.140625 206.179688 180.746094 206.769531 180.707031 C 207.359375 180.667969 207.910156 180.988281 208.167969 181.519531 L 213.214844 191.828125 L 261.046875 191.828125 C 261.847656 191.828125 262.496094 192.476562 262.496094 193.277344 C 262.496094 194.082031 261.847656 194.730469 261.046875 194.730469 L 212.308594 194.730469 C 211.753906 194.730469 211.25 194.414062 211.003906 193.917969 L 207.121094 185.980469 L 204.308594 194.421875 C 204.125 194.972656 203.632812 195.363281 203.054688 195.410156 C 202.472656 195.460938 201.925781 195.160156 201.652344 194.648438 L 199.652344 190.898438 L 194.304688 208.207031 C 194.113281 208.820312 193.550781 209.230469 192.917969 209.230469 Z M 192.917969 209.230469 " fill-opacity="1" fill-rule="nonzero"/></g><g fill="#7ed957" fill-opacity="1"><g transform="translate(75.30126, 224.861733)"><g><path d="M 63.828125 -9.96875 C 63.460938 -9.488281 63.0625 -9.03125 62.625 -8.59375 C 62.394531 -8.332031 62.140625 -8.0625 61.859375 -7.78125 C 57.878906 -3.25 53.679688 1.078125 49.265625 5.203125 C 45.273438 8.972656 40.992188 12.351562 36.421875 15.34375 C 34.003906 16.882812 31.492188 18.179688 28.890625 19.234375 C 26.285156 20.285156 23.570312 21.050781 20.75 21.53125 C 17.925781 22 15.109375 22.082031 12.296875 21.78125 C 8.128906 21.21875 4.921875 19.816406 2.671875 17.578125 C 0.421875 15.335938 -1.085938 12.570312 -1.859375 9.28125 C -2.628906 6 -2.863281 2.503906 -2.5625 -1.203125 C -2.269531 -4.921875 -1.648438 -8.523438 -0.703125 -12.015625 C 0.234375 -15.515625 1.289062 -18.59375 2.46875 -21.25 C 4.851562 -26.6875 7.675781 -31.835938 10.9375 -36.703125 C 14.195312 -41.578125 17.941406 -46.128906 22.171875 -50.359375 C 22.765625 -50.972656 23.007812 -51.367188 22.90625 -51.546875 C 22.8125 -51.734375 22.484375 -51.894531 21.921875 -52.03125 C 21.640625 -52.0625 21.347656 -52.132812 21.046875 -52.25 C 19.640625 -52.675781 18.265625 -53.125 16.921875 -53.59375 C 14.628906 -54.375 12.347656 -55.097656 10.078125 -55.765625 C 7.816406 -56.441406 5.535156 -56.992188 3.234375 -57.421875 C 1.171875 -57.785156 -0.882812 -57.882812 -2.9375 -57.71875 C -4.414062 -57.65625 -5.785156 -57.234375 -7.046875 -56.453125 C -7.921875 -55.953125 -8.660156 -55.347656 -9.265625 -54.640625 C -9.878906 -53.941406 -10.234375 -53.035156 -10.328125 -51.921875 C -10.429688 -50.878906 -11.15625 -50.484375 -12.5 -50.734375 C -13.375 -50.859375 -13.8125 -51.390625 -13.8125 -52.328125 C -13.8125 -53.003906 -13.675781 -53.617188 -13.40625 -54.171875 C -13.144531 -54.734375 -12.789062 -55.265625 -12.34375 -55.765625 C -10.738281 -57.679688 -8.691406 -58.90625 -6.203125 -59.4375 C -3.148438 -60.101562 -0.0625 -60.222656 3.0625 -59.796875 C 5.351562 -59.460938 7.597656 -58.988281 9.796875 -58.375 C 11.992188 -57.769531 14.1875 -57.113281 16.375 -56.40625 C 16.570312 -56.34375 16.753906 -56.300781 16.921875 -56.28125 C 17.597656 -56.03125 18.269531 -55.804688 18.9375 -55.609375 C 20.613281 -55.140625 22.265625 -54.601562 23.890625 -54 C 24.515625 -53.757812 25.078125 -53.695312 25.578125 -53.8125 C 26.085938 -53.9375 26.59375 -54.203125 27.09375 -54.609375 C 29.15625 -56.285156 31.378906 -57.695312 33.765625 -58.84375 C 36.816406 -60.414062 40.078125 -61.320312 43.546875 -61.5625 C 44.609375 -61.65625 45.671875 -61.625 46.734375 -61.46875 C 47.796875 -61.320312 48.804688 -61.019531 49.765625 -60.5625 C 51.359375 -59.75 52.28125 -58.660156 52.53125 -57.296875 C 52.78125 -55.941406 52.316406 -54.609375 51.140625 -53.296875 C 50.054688 -52.148438 48.757812 -51.3125 47.25 -50.78125 C 45.445312 -50.03125 43.566406 -49.59375 41.609375 -49.46875 C 39.660156 -49.332031 37.710938 -49.285156 35.765625 -49.328125 C 33.816406 -49.378906 31.890625 -49.59375 29.984375 -49.96875 C 29.847656 -50 29.707031 -50.03125 29.5625 -50.0625 C 28.863281 -50.226562 28.226562 -50.300781 27.65625 -50.28125 C 27.082031 -50.269531 26.5 -49.976562 25.90625 -49.40625 C 20.863281 -44.4375 16.453125 -38.867188 12.671875 -32.703125 C 8.898438 -26.535156 5.882812 -20.113281 3.625 -13.4375 C 2.78125 -11.09375 2.113281 -8.476562 1.625 -5.59375 C 1.132812 -2.71875 0.957031 0.160156 1.09375 3.046875 C 1.238281 5.929688 1.851562 8.625 2.9375 11.125 C 4.03125 13.632812 5.753906 15.726562 8.109375 17.40625 C 10.085938 18.75 12.269531 19.46875 14.65625 19.5625 C 18.21875 19.632812 21.660156 19.066406 24.984375 17.859375 C 28.578125 16.515625 31.9375 14.753906 35.0625 12.578125 C 37.8125 10.679688 40.429688 8.648438 42.921875 6.484375 C 45.410156 4.328125 47.859375 2.085938 50.265625 -0.234375 C 51.179688 -1.066406 52.722656 -2.488281 54.890625 -4.5 C 57.066406 -6.519531 59.054688 -8.300781 60.859375 -9.84375 C 61.160156 -10.125 61.445312 -10.398438 61.71875 -10.671875 C 62.289062 -11.171875 62.789062 -11.570312 63.21875 -11.875 C 63.65625 -12.175781 64.082031 -12.296875 64.5 -12.234375 C 65.257812 -12.148438 65.035156 -11.394531 63.828125 -9.96875 Z M 43.375 -59.234375 C 40.851562 -58.859375 38.484375 -58.101562 36.265625 -56.96875 C 34.054688 -55.832031 31.894531 -54.425781 29.78125 -52.75 C 31.65625 -52.101562 33.632812 -51.695312 35.71875 -51.53125 C 37.800781 -51.363281 39.710938 -51.410156 41.453125 -51.671875 C 43.015625 -51.910156 44.5 -52.382812 45.90625 -53.09375 C 46.800781 -53.53125 47.554688 -54.132812 48.171875 -54.90625 C 48.671875 -55.675781 48.828125 -56.410156 48.640625 -57.109375 C 48.460938 -57.816406 47.953125 -58.351562 47.109375 -58.71875 C 45.898438 -59.226562 44.65625 -59.398438 43.375 -59.234375 Z M 43.375 -59.234375 "/></g></g></g><g fill="#7ed957" fill-opacity="1"><g transform="translate(138.016103, 224.861733)"><g><path d="M 19.4375 -11.015625 C 20.113281 -11.660156 20.675781 -11.785156 21.125 -11.390625 C 21.570312 -11.003906 21.566406 -10.273438 21.109375 -9.203125 C 20.054688 -7.160156 18.707031 -5.242188 17.0625 -3.453125 C 15.425781 -1.671875 13.5625 -0.359375 11.46875 0.484375 C 10.570312 0.773438 9.660156 0.921875 8.734375 0.921875 C 7.816406 0.921875 6.90625 0.804688 6 0.578125 C 5.113281 0.378906 4.375 0.00390625 3.78125 -0.546875 C 3.195312 -1.109375 2.691406 -1.757812 2.265625 -2.5 C 0.984375 -4.925781 0.171875 -8.410156 -0.171875 -12.953125 C -0.523438 -17.503906 -0.5625 -22.472656 -0.28125 -27.859375 C 0 -33.253906 0.441406 -38.421875 1.046875 -43.359375 C 1.660156 -48.304688 2.28125 -52.390625 2.90625 -55.609375 C 3.207031 -56.953125 3.664062 -58.226562 4.28125 -59.4375 C 4.957031 -60.6875 5.992188 -61.257812 7.390625 -61.15625 C 8.710938 -61.15625 9.625 -60.535156 10.125 -59.296875 C 10.65625 -57.710938 10.960938 -56.09375 11.046875 -54.4375 C 11.296875 -50.539062 11.1875 -46.664062 10.71875 -42.8125 C 10.257812 -39.082031 9.675781 -35.59375 8.96875 -32.34375 C 8.257812 -29.101562 7.519531 -25.925781 6.75 -22.8125 C 5.78125 -19.007812 4.859375 -15.023438 3.984375 -10.859375 C 4.015625 -10.429688 4.0625 -10.050781 4.125 -9.71875 C 4.226562 -8.539062 4.382812 -7.519531 4.59375 -6.65625 C 4.8125 -5.800781 5.28125 -4.75 6 -3.5 C 6.675781 -2.320312 7.523438 -1.695312 8.546875 -1.625 C 9.566406 -1.5625 10.613281 -1.847656 11.6875 -2.484375 C 12.769531 -3.128906 13.757812 -3.898438 14.65625 -4.796875 C 15.5625 -5.691406 16.265625 -6.503906 16.765625 -7.234375 C 16.898438 -7.429688 17.15625 -7.800781 17.53125 -8.34375 C 17.90625 -8.882812 18.273438 -9.414062 18.640625 -9.9375 C 19.003906 -10.457031 19.269531 -10.816406 19.4375 -11.015625 Z M 3.53125 -23.15625 C 3.957031 -24.269531 4.390625 -26.054688 4.828125 -28.515625 C 5.273438 -30.984375 5.671875 -33.726562 6.015625 -36.75 C 6.367188 -39.78125 6.632812 -42.664062 6.8125 -45.40625 C 7 -48.144531 7.066406 -50.332031 7.015625 -51.96875 C 6.960938 -53.613281 6.753906 -54.304688 6.390625 -54.046875 C 5.859375 -51.734375 5.507812 -49.582031 5.34375 -47.59375 C 5.226562 -46.550781 5.070312 -45.007812 4.875 -42.96875 C 4.476562 -39.40625 4.113281 -35.613281 3.78125 -31.59375 C 3.445312 -27.582031 3.363281 -24.769531 3.53125 -23.15625 Z M 3.53125 -23.15625 "/></g></g></g><g fill="#7ed957" fill-opacity="1"><g transform="translate(157.142075, 224.861733)"><g><path d="M 16.671875 -11.46875 C 16.867188 -11.363281 16.957031 -11.1875 16.9375 -10.9375 C 16.925781 -10.6875 16.851562 -10.460938 16.71875 -10.265625 C 15.675781 -8.722656 14.5625 -7.351562 13.375 -6.15625 C 12.1875 -4.96875 10.878906 -4.078125 9.453125 -3.484375 C 8.023438 -2.898438 6.382812 -2.738281 4.53125 -3 C 3.300781 -3.195312 2.367188 -3.613281 1.734375 -4.25 C 1.109375 -4.894531 0.644531 -5.804688 0.34375 -6.984375 C -0.15625 -8.828125 -0.269531 -10.726562 0 -12.6875 C 0.226562 -13.820312 0.929688 -14.410156 2.109375 -14.453125 C 3.160156 -14.453125 3.734375 -13.976562 3.828125 -13.03125 C 3.859375 -12.25 3.859375 -11.476562 3.828125 -10.71875 C 3.828125 -10.613281 3.828125 -10.515625 3.828125 -10.421875 C 3.765625 -8.328125 4.101562 -6.894531 4.84375 -6.125 C 5.582031 -5.351562 6.546875 -5.148438 7.734375 -5.515625 C 8.929688 -5.878906 10.203125 -6.722656 11.546875 -8.046875 C 11.710938 -8.210938 11.921875 -8.4375 12.171875 -8.71875 C 12.421875 -9.007812 12.703125 -9.300781 13.015625 -9.59375 C 13.441406 -10.039062 13.789062 -10.414062 14.0625 -10.71875 C 14.90625 -11.5625 15.773438 -11.8125 16.671875 -11.46875 Z M 1.8125 -17.8125 C 0.875 -17.875 0.335938 -18.378906 0.203125 -19.328125 C 0.0976562 -20.066406 0.210938 -20.769531 0.546875 -21.4375 C 0.847656 -22.019531 1.34375 -22.414062 2.03125 -22.625 C 2.71875 -22.84375 3.367188 -22.785156 3.984375 -22.453125 C 4.210938 -22.328125 4.375 -22.148438 4.46875 -21.921875 C 4.570312 -21.703125 4.609375 -21.523438 4.578125 -21.390625 C 4.546875 -18.972656 3.625 -17.78125 1.8125 -17.8125 Z M 1.8125 -17.8125 "/></g></g></g><g fill="#7ed957" fill-opacity="1"><g transform="translate(171.183059, 224.861733)"><g><path d="M 31.75 -11.5625 C 32.050781 -11.59375 32.289062 -11.550781 32.46875 -11.4375 C 32.65625 -11.320312 32.75 -11.097656 32.75 -10.765625 C 32.8125 -10.597656 32.75 -10.351562 32.5625 -10.03125 C 32.382812 -9.707031 32.175781 -9.394531 31.9375 -9.09375 C 31.695312 -8.800781 31.519531 -8.585938 31.40625 -8.453125 C 30.289062 -7.273438 29.0625 -6.5 27.71875 -6.125 C 26.375 -5.75 24.929688 -5.703125 23.390625 -5.984375 C 22.640625 -6.117188 21.988281 -6.414062 21.4375 -6.875 C 20.882812 -7.34375 20.40625 -7.914062 20 -8.59375 C 19.96875 -8.632812 19.9375 -8.671875 19.90625 -8.703125 C 19.425781 -9.460938 18.90625 -10.21875 18.34375 -10.96875 C 18.070312 -11.332031 17.804688 -11.515625 17.546875 -11.515625 C 17.296875 -11.515625 17.003906 -11.347656 16.671875 -11.015625 C 15.660156 -10.066406 14.789062 -9.003906 14.0625 -7.828125 C 13.363281 -6.796875 12.359375 -6.332031 11.046875 -6.4375 C 10.066406 -6.5 9.421875 -7.003906 9.109375 -7.953125 C 9.054688 -8.179688 9.03125 -8.414062 9.03125 -8.65625 C 8.945312 -9.863281 8.679688 -10.210938 8.234375 -9.703125 C 7.785156 -9.203125 7.335938 -8.519531 6.890625 -7.65625 C 6.722656 -7.3125 6.523438 -6.972656 6.296875 -6.640625 C 6.066406 -6.234375 5.832031 -5.828125 5.59375 -5.421875 C 5.363281 -4.984375 5.109375 -4.550781 4.828125 -4.125 C 4.359375 -3.445312 3.703125 -3.070312 2.859375 -3 C 1.316406 -2.863281 0.445312 -3.535156 0.25 -5.015625 C 0.1875 -6.296875 0.132812 -7.570312 0.09375 -8.84375 C 0.0625 -9.425781 0.03125 -10.015625 0 -10.609375 C -0.03125 -11.109375 -0.046875 -11.632812 -0.046875 -12.1875 C -0.117188 -13.113281 -0.171875 -14.035156 -0.203125 -14.953125 C -0.234375 -16.160156 0.320312 -16.8125 1.46875 -16.90625 C 2.707031 -17.007812 3.425781 -16.503906 3.625 -15.390625 C 3.757812 -14.378906 3.863281 -13.375 3.9375 -12.375 C 3.9375 -11.695312 4.007812 -11.285156 4.15625 -11.140625 C 4.300781 -10.992188 4.441406 -10.960938 4.578125 -11.046875 C 4.710938 -11.128906 4.851562 -11.253906 5 -11.421875 C 5 -11.421875 5 -11.4375 5 -11.46875 C 5.132812 -11.644531 5.257812 -11.816406 5.375 -11.984375 C 5.71875 -12.453125 6.078125 -12.882812 6.453125 -13.28125 C 7.460938 -14.15625 8.640625 -14.523438 9.984375 -14.390625 C 11.160156 -14.296875 12 -13.726562 12.5 -12.6875 C 12.664062 -12.300781 12.929688 -12.242188 13.296875 -12.515625 C 13.671875 -12.796875 14.164062 -13.117188 14.78125 -13.484375 C 15.40625 -13.859375 16.085938 -14.113281 16.828125 -14.25 C 18.597656 -14.613281 20.113281 -14.15625 21.375 -12.875 C 21.9375 -12.25 22.484375 -11.5625 23.015625 -10.8125 C 23.066406 -10.75 23.117188 -10.679688 23.171875 -10.609375 C 23.316406 -10.410156 23.457031 -10.195312 23.59375 -9.96875 C 23.6875 -9.769531 23.800781 -9.5625 23.9375 -9.34375 C 24.5 -8.613281 25.09375 -8.238281 25.71875 -8.21875 C 26.34375 -8.207031 26.960938 -8.398438 27.578125 -8.796875 C 28.203125 -9.203125 28.804688 -9.660156 29.390625 -10.171875 C 29.847656 -10.566406 30.269531 -10.894531 30.65625 -11.15625 C 31.039062 -11.425781 31.40625 -11.5625 31.75 -11.5625 Z M 31.75 -11.5625 "/></g></g></g><g fill="#7ed957" fill-opacity="1"><g transform="translate(201.418119, 224.861733)"><g><path d="M 4.875 -8.953125 C 4.84375 -8.953125 4.8125 -8.953125 4.78125 -8.953125 C 4.78125 -8.953125 4.796875 -8.953125 4.828125 -8.953125 C 4.828125 -8.953125 4.84375 -8.953125 4.875 -8.953125 Z M 20.90625 -11.265625 C 21.070312 -11.367188 21.335938 -11.492188 21.703125 -11.640625 C 22.078125 -11.785156 22.429688 -11.867188 22.765625 -11.890625 C 23.097656 -11.921875 23.332031 -11.796875 23.46875 -11.515625 C 23.582031 -11.316406 23.609375 -11.125 23.546875 -10.9375 C 23.492188 -10.757812 23.398438 -10.601562 23.265625 -10.46875 C 22.429688 -9.550781 21.128906 -8.625 19.359375 -7.6875 C 17.597656 -6.75 15.769531 -5.921875 13.875 -5.203125 C 11.988281 -4.484375 10.414062 -4.015625 9.15625 -3.796875 C 7.726562 -3.535156 6.269531 -3.476562 4.78125 -3.625 C 2.96875 -3.851562 1.617188 -4.601562 0.734375 -5.875 C -0.148438 -7.144531 -0.507812 -8.578125 -0.34375 -10.171875 C -0.0820312 -11.941406 0.722656 -13.347656 2.078125 -14.390625 C 3.441406 -15.441406 5 -15.828125 6.75 -15.546875 C 7.820312 -15.410156 8.796875 -15.023438 9.671875 -14.390625 C 10.609375 -13.617188 11.023438 -12.738281 10.921875 -11.75 C 10.828125 -10.757812 10.238281 -9.992188 9.15625 -9.453125 C 8.59375 -9.179688 7.96875 -9.007812 7.28125 -8.9375 C 6.59375 -8.875 5.789062 -8.878906 4.875 -8.953125 C 4.875 -8.953125 4.847656 -8.953125 4.796875 -8.953125 C 4.753906 -8.953125 4.679688 -8.953125 4.578125 -8.953125 C 4.484375 -8.953125 4.382812 -8.953125 4.28125 -8.953125 C 4.007812 -8.953125 3.832031 -8.875 3.75 -8.71875 C 3.664062 -8.570312 3.660156 -8.382812 3.734375 -8.15625 C 4.234375 -6.90625 5.21875 -6.242188 6.6875 -6.171875 C 8.164062 -6.097656 9.835938 -6.375 11.703125 -7 C 13.578125 -7.632812 15.351562 -8.363281 17.03125 -9.1875 C 18.71875 -10.007812 20.007812 -10.703125 20.90625 -11.265625 Z M 4.828125 -12.734375 C 4.597656 -12.566406 4.441406 -12.367188 4.359375 -12.140625 C 4.273438 -11.921875 4.222656 -11.734375 4.203125 -11.578125 C 4.191406 -11.429688 4.21875 -11.34375 4.28125 -11.3125 C 4.34375 -11.28125 4.535156 -11.238281 4.859375 -11.1875 C 5.179688 -11.132812 5.535156 -11.125 5.921875 -11.15625 C 6.304688 -11.195312 6.625 -11.28125 6.875 -11.40625 C 7.132812 -11.539062 7.222656 -11.773438 7.140625 -12.109375 C 6.972656 -12.585938 6.648438 -12.882812 6.171875 -13 C 5.691406 -13.125 5.242188 -13.035156 4.828125 -12.734375 Z M 4.828125 -12.734375 "/></g></g></g><g fill="#7ed957" fill-opacity="1"><g transform="translate(222.58266, 224.861733)"><g><path d="M 34.8125 -11.515625 C 35.3125 -11.410156 35.546875 -11.117188 35.515625 -10.640625 C 35.492188 -10.160156 35.328125 -9.679688 35.015625 -9.203125 C 34.210938 -7.992188 33.179688 -6.925781 31.921875 -6 C 30.660156 -5.082031 29.359375 -4.4375 28.015625 -4.0625 C 26.671875 -3.6875 25.414062 -3.75 24.25 -4.25 C 23.09375 -4.757812 22.203125 -5.835938 21.578125 -7.484375 C 20.992188 -8.972656 20.65625 -10.5 20.5625 -12.0625 C 20.519531 -12.601562 20.488281 -13.941406 20.46875 -16.078125 C 20.457031 -18.210938 20.4375 -20.457031 20.40625 -22.8125 C 20.375 -25.164062 20.359375 -26.929688 20.359375 -28.109375 C 20.359375 -28.640625 20.359375 -28.921875 20.359375 -28.953125 C 19.492188 -25.785156 18.472656 -22.507812 17.296875 -19.125 C 16.117188 -15.738281 15.273438 -13.472656 14.765625 -12.328125 C 13.796875 -10.210938 12.707031 -8.148438 11.5 -6.140625 C 10.65625 -4.828125 9.644531 -3.648438 8.46875 -2.609375 C 7.519531 -1.765625 6.390625 -1.257812 5.078125 -1.09375 C 3.765625 -0.925781 2.539062 -1.09375 1.40625 -1.59375 C 0.269531 -2.101562 -0.476562 -2.976562 -0.84375 -4.21875 C -1.226562 -5.664062 -1.316406 -7.066406 -1.109375 -8.421875 C -0.898438 -9.785156 -0.332031 -11.070312 0.59375 -12.28125 C 1.644531 -13.59375 2.847656 -14.445312 4.203125 -14.84375 C 5.566406 -15.25 7.050781 -15.265625 8.65625 -14.890625 C 9.15625 -14.765625 9.660156 -14.597656 10.171875 -14.390625 C 10.410156 -14.296875 10.660156 -14.191406 10.921875 -14.078125 C 11.734375 -15.085938 12.617188 -17.082031 13.578125 -20.0625 C 14.546875 -23.039062 15.425781 -26.085938 16.21875 -29.203125 C 17.019531 -32.328125 17.578125 -34.59375 17.890625 -36 C 18.835938 -40.226562 19.625 -44.425781 20.25 -48.59375 C 20.6875 -51.28125 21.160156 -53.984375 21.671875 -56.703125 C 21.867188 -57.585938 22.367188 -58.164062 23.171875 -58.4375 C 23.984375 -58.707031 24.742188 -58.570312 25.453125 -58.03125 C 25.785156 -57.757812 25.953125 -57.425781 25.953125 -57.03125 C 25.847656 -52.113281 25.625 -47.175781 25.28125 -42.21875 C 25.1875 -40.195312 25.085938 -38.222656 24.984375 -36.296875 C 24.785156 -32.515625 24.644531 -28.722656 24.5625 -24.921875 C 24.476562 -21.128906 24.519531 -17.332031 24.6875 -13.53125 C 24.6875 -13.394531 24.6875 -13.242188 24.6875 -13.078125 C 24.6875 -12.316406 24.753906 -11.40625 24.890625 -10.34375 C 25.035156 -9.28125 25.316406 -8.378906 25.734375 -7.640625 C 26.148438 -6.898438 26.828125 -6.648438 27.765625 -6.890625 C 28.460938 -7.117188 29.171875 -7.5 29.890625 -8.03125 C 30.617188 -8.570312 31.320312 -9.132812 32 -9.71875 C 32.601562 -10.25 33.144531 -10.6875 33.625 -11.03125 C 34.113281 -11.382812 34.507812 -11.546875 34.8125 -11.515625 Z M 5.890625 -4.96875 C 6.722656 -5.914062 7.453125 -6.921875 8.078125 -7.984375 C 8.710938 -9.054688 9.328125 -10.25 9.921875 -11.5625 C 9.148438 -11.925781 8.398438 -12.210938 7.671875 -12.421875 C 6.953125 -12.628906 6.253906 -12.597656 5.578125 -12.328125 C 4.910156 -12.066406 4.28125 -11.429688 3.6875 -10.421875 C 2.570312 -8.429688 2.40625 -6.363281 3.1875 -4.21875 C 3.382812 -3.738281 3.65625 -3.523438 4 -3.578125 C 4.351562 -3.640625 4.707031 -3.828125 5.0625 -4.140625 C 5.414062 -4.460938 5.691406 -4.738281 5.890625 -4.96875 Z M 5.890625 -4.96875 "/></g></g></g><g fill="#7ed957" fill-opacity="1"><g transform="translate(255.543462, 224.861733)"><g><path d="M 27.875 -11.359375 C 28.101562 -11.296875 28.257812 -11.140625 28.34375 -10.890625 C 28.425781 -10.640625 28.351562 -10.347656 28.125 -10.015625 C 27.457031 -9.109375 26.457031 -8.171875 25.125 -7.203125 C 23.789062 -6.242188 22.34375 -5.445312 20.78125 -4.8125 C 19.21875 -4.1875 17.710938 -3.929688 16.265625 -4.046875 C 14.828125 -4.160156 13.65625 -4.832031 12.75 -6.0625 C 12.539062 -6.375 12.335938 -6.679688 12.140625 -6.984375 C 11.773438 -7.710938 11.285156 -8.382812 10.671875 -9 C 9.941406 -9.675781 9.269531 -9.675781 8.65625 -9 C 7.476562 -7.71875 6.539062 -6.289062 5.84375 -4.71875 C 5.507812 -3.9375 5.171875 -3.164062 4.828125 -2.40625 C 4.597656 -1.820312 4.363281 -1.265625 4.125 -0.734375 C 3.53125 0.773438 2.476562 1.296875 0.96875 0.828125 C 0.21875 0.546875 -0.203125 0.0390625 -0.296875 -0.6875 C -0.328125 -0.957031 -0.328125 -1.238281 -0.296875 -1.53125 C -0.296875 -1.632812 -0.296875 -1.742188 -0.296875 -1.859375 C -0.203125 -4.742188 -0.101562 -7.628906 0 -10.515625 C 0.195312 -17.335938 0.429688 -24.15625 0.703125 -30.96875 C 0.765625 -32.445312 0.8125 -33.925781 0.84375 -35.40625 C 0.945312 -38.320312 1.082031 -41.226562 1.25 -44.125 C 1.425781 -47.019531 1.679688 -49.910156 2.015625 -52.796875 C 2.179688 -53.941406 2.445312 -55.0625 2.8125 -56.15625 C 3.175781 -57.070312 3.796875 -57.710938 4.671875 -58.078125 C 5.554688 -58.453125 6.472656 -58.523438 7.421875 -58.296875 C 8.378906 -58.078125 9.179688 -57.546875 9.828125 -56.703125 C 10.804688 -55.304688 11.363281 -53.75 11.5 -52.03125 C 12.03125 -46.6875 11.984375 -41.585938 11.359375 -36.734375 C 10.734375 -31.878906 9.648438 -26.898438 8.109375 -21.796875 C 7.203125 -18.773438 6.347656 -16.132812 5.546875 -13.875 C 5.265625 -13.144531 5.023438 -12.5 4.828125 -11.9375 C 4.492188 -10.925781 4.328125 -10.296875 4.328125 -10.046875 C 4.328125 -9.796875 4.460938 -9.796875 4.734375 -10.046875 C 6.390625 -11.804688 8.097656 -12.648438 9.859375 -12.578125 C 11.617188 -12.515625 13.316406 -11.472656 14.953125 -9.453125 C 15.085938 -9.253906 15.226562 -9.050781 15.375 -8.84375 C 15.769531 -8.3125 16.144531 -7.875 16.5 -7.53125 C 16.863281 -7.195312 17.257812 -7 17.6875 -6.9375 C 18.800781 -6.769531 19.984375 -7.046875 21.234375 -7.765625 C 22.492188 -8.484375 23.742188 -9.332031 24.984375 -10.3125 C 26.265625 -11.3125 27.226562 -11.660156 27.875 -11.359375 Z M 7.3125 -52.84375 C 7.195312 -53.539062 7.082031 -53.929688 6.96875 -54.015625 C 6.851562 -54.097656 6.738281 -54.003906 6.625 -53.734375 C 6.507812 -53.472656 6.410156 -53.125 6.328125 -52.6875 C 6.242188 -52.25 6.175781 -51.84375 6.125 -51.46875 C 6.070312 -51.101562 6.03125 -50.875 6 -50.78125 C 5.832031 -48.519531 5.65625 -45.644531 5.46875 -42.15625 C 5.289062 -38.664062 5.117188 -35.203125 4.953125 -31.765625 C 4.804688 -28.984375 4.679688 -26.617188 4.578125 -24.671875 C 4.484375 -22.734375 4.398438 -21.554688 4.328125 -21.140625 C 5.410156 -24.097656 6.21875 -27.648438 6.75 -31.796875 C 7.289062 -35.941406 7.59375 -39.945312 7.65625 -43.8125 C 7.726562 -47.675781 7.613281 -50.6875 7.3125 -52.84375 Z M 7.3125 -52.84375 "/></g></g></g><g fill="#7ed957" fill-opacity="1"><g transform="translate(281.334885, 224.861733)"><g><path d="M 18.140625 -11.3125 C 18.472656 -11.59375 18.722656 -11.6875 18.890625 -11.59375 C 19.054688 -11.507812 19.175781 -11.34375 19.25 -11.09375 C 19.320312 -10.84375 19.359375 -10.597656 19.359375 -10.359375 C 19.328125 -9.898438 19.234375 -9.457031 19.078125 -9.03125 C 18.921875 -8.613281 18.816406 -8.335938 18.765625 -8.203125 C 18.710938 -8.171875 18.6875 -8.15625 18.6875 -8.15625 C 18.226562 -6.976562 17.503906 -5.816406 16.515625 -4.671875 C 15.523438 -3.523438 14.359375 -2.597656 13.015625 -1.890625 C 11.671875 -1.191406 10.238281 -0.890625 8.71875 -0.984375 C 6.601562 -1.222656 4.914062 -2.035156 3.65625 -3.421875 C 2.394531 -4.816406 1.445312 -6.476562 0.8125 -8.40625 C 0.175781 -10.34375 -0.242188 -12.25 -0.453125 -14.125 C -1.023438 -18.769531 -1.195312 -23.441406 -0.96875 -28.140625 C -0.914062 -29.285156 -0.875 -30.429688 -0.84375 -31.578125 C -0.84375 -31.972656 -0.84375 -32.375 -0.84375 -32.78125 C -0.84375 -33.519531 -1.195312 -33.890625 -1.90625 -33.890625 C -2.644531 -33.890625 -3.382812 -33.90625 -4.125 -33.9375 C -4.9375 -33.9375 -5.757812 -33.9375 -6.59375 -33.9375 C -6.695312 -33.9375 -6.8125 -33.9375 -6.9375 -33.9375 C -7.519531 -33.875 -8.0625 -33.972656 -8.5625 -34.234375 C -8.789062 -34.347656 -8.984375 -34.492188 -9.140625 -34.671875 C -9.296875 -34.859375 -9.375 -35.085938 -9.375 -35.359375 C -9.34375 -35.617188 -9.234375 -35.820312 -9.046875 -35.96875 C -8.859375 -36.125 -8.628906 -36.203125 -8.359375 -36.203125 C -7.378906 -36.234375 -6.398438 -36.25 -5.421875 -36.25 C -4.828125 -36.25 -4.242188 -36.25 -3.671875 -36.25 C -2.898438 -36.25 -2.125 -36.289062 -1.34375 -36.375 C -0.914062 -36.40625 -0.648438 -36.65625 -0.546875 -37.125 C -0.484375 -37.6875 -0.429688 -38.253906 -0.390625 -38.828125 C -0.265625 -40.671875 -0.132812 -42.515625 0 -44.359375 C 0.101562 -45.640625 0.203125 -46.898438 0.296875 -48.140625 C 0.296875 -48.191406 0.296875 -48.226562 0.296875 -48.25 C 0.296875 -48.507812 0.316406 -48.765625 0.359375 -49.015625 C 0.617188 -50.078125 1.335938 -50.582031 2.515625 -50.53125 C 3.523438 -50.445312 4.082031 -49.890625 4.1875 -48.859375 C 4.21875 -48.179688 4.21875 -47.492188 4.1875 -46.796875 C 4.1875 -46.515625 4.1875 -46.226562 4.1875 -45.9375 C 4.1875 -45.9375 4.171875 -45.9375 4.140625 -45.9375 C 4.097656 -45.164062 4.0625 -44.390625 4.03125 -43.609375 C 3.894531 -41.867188 3.796875 -40.101562 3.734375 -38.3125 C 3.671875 -37.382812 3.753906 -36.800781 3.984375 -36.5625 C 4.210938 -36.320312 4.832031 -36.21875 5.84375 -36.25 C 7.738281 -36.21875 9.625 -36.203125 11.5 -36.203125 C 12.84375 -36.203125 14.1875 -36.191406 15.53125 -36.171875 C 15.664062 -36.171875 15.796875 -36.171875 15.921875 -36.171875 C 16.253906 -36.191406 16.570312 -36.175781 16.875 -36.125 C 17.1875 -36.070312 17.492188 -35.960938 17.796875 -35.796875 C 17.890625 -35.703125 17.976562 -35.601562 18.0625 -35.5 C 18.144531 -35.40625 18.207031 -35.273438 18.25 -35.109375 C 18.25 -34.941406 18.195312 -34.800781 18.09375 -34.6875 C 17.988281 -34.582031 17.890625 -34.503906 17.796875 -34.453125 C 17.179688 -34.109375 16.539062 -33.96875 15.875 -34.03125 C 15.78125 -34.03125 15.664062 -34.03125 15.53125 -34.03125 C 13.507812 -34.03125 11.507812 -34.015625 9.53125 -33.984375 C 8.414062 -33.953125 7.289062 -33.9375 6.15625 -33.9375 C 6.082031 -33.9375 6.015625 -33.9375 5.953125 -33.9375 C 5.453125 -33.9375 4.929688 -33.921875 4.390625 -33.890625 C 3.847656 -33.816406 3.53125 -33.515625 3.4375 -32.984375 C 3.363281 -32.671875 3.328125 -32.375 3.328125 -32.09375 C 3.203125 -29.125 3.144531 -26.15625 3.15625 -23.1875 C 3.175781 -20.21875 3.367188 -17.269531 3.734375 -14.34375 C 4.035156 -11.988281 4.65625 -9.734375 5.59375 -7.578125 C 6.09375 -6.398438 6.703125 -5.472656 7.421875 -4.796875 C 8.148438 -4.128906 8.96875 -3.851562 9.875 -3.96875 C 11.550781 -4.238281 12.847656 -4.832031 13.765625 -5.75 C 14.691406 -6.675781 15.476562 -7.675781 16.125 -8.75 C 16.738281 -9.789062 17.410156 -10.644531 18.140625 -11.3125 Z M 18.140625 -11.3125 "/></g></g></g><g fill="#7ed957" fill-opacity="1"><g transform="translate(298.078711, 224.861733)"><g><path d="M 31.75 -11.5625 C 32.050781 -11.59375 32.289062 -11.550781 32.46875 -11.4375 C 32.65625 -11.320312 32.75 -11.097656 32.75 -10.765625 C 32.8125 -10.597656 32.75 -10.351562 32.5625 -10.03125 C 32.382812 -9.707031 32.175781 -9.394531 31.9375 -9.09375 C 31.695312 -8.800781 31.519531 -8.585938 31.40625 -8.453125 C 30.289062 -7.273438 29.0625 -6.5 27.71875 -6.125 C 26.375 -5.75 24.929688 -5.703125 23.390625 -5.984375 C 22.640625 -6.117188 21.988281 -6.414062 21.4375 -6.875 C 20.882812 -7.34375 20.40625 -7.914062 20 -8.59375 C 19.96875 -8.632812 19.9375 -8.671875 19.90625 -8.703125 C 19.425781 -9.460938 18.90625 -10.21875 18.34375 -10.96875 C 18.070312 -11.332031 17.804688 -11.515625 17.546875 -11.515625 C 17.296875 -11.515625 17.003906 -11.347656 16.671875 -11.015625 C 15.660156 -10.066406 14.789062 -9.003906 14.0625 -7.828125 C 13.363281 -6.796875 12.359375 -6.332031 11.046875 -6.4375 C 10.066406 -6.5 9.421875 -7.003906 9.109375 -7.953125 C 9.054688 -8.179688 9.03125 -8.414062 9.03125 -8.65625 C 8.945312 -9.863281 8.679688 -10.210938 8.234375 -9.703125 C 7.785156 -9.203125 7.335938 -8.519531 6.890625 -7.65625 C 6.722656 -7.3125 6.523438 -6.972656 6.296875 -6.640625 C 6.066406 -6.234375 5.832031 -5.828125 5.59375 -5.421875 C 5.363281 -4.984375 5.109375 -4.550781 4.828125 -4.125 C 4.359375 -3.445312 3.703125 -3.070312 2.859375 -3 C 1.316406 -2.863281 0.445312 -3.535156 0.25 -5.015625 C 0.1875 -6.296875 0.132812 -7.570312 0.09375 -8.84375 C 0.0625 -9.425781 0.03125 -10.015625 0 -10.609375 C -0.03125 -11.109375 -0.046875 -11.632812 -0.046875 -12.1875 C -0.117188 -13.113281 -0.171875 -14.035156 -0.203125 -14.953125 C -0.234375 -16.160156 0.320312 -16.8125 1.46875 -16.90625 C 2.707031 -17.007812 3.425781 -16.503906 3.625 -15.390625 C 3.757812 -14.378906 3.863281 -13.375 3.9375 -12.375 C 3.9375 -11.695312 4.007812 -11.285156 4.15625 -11.140625 C 4.300781 -10.992188 4.441406 -10.960938 4.578125 -11.046875 C 4.710938 -11.128906 4.851562 -11.253906 5 -11.421875 C 5 -11.421875 5 -11.4375 5 -11.46875 C 5.132812 -11.644531 5.257812 -11.816406 5.375 -11.984375 C 5.71875 -12.453125 6.078125 -12.882812 6.453125 -13.28125 C 7.460938 -14.15625 8.640625 -14.523438 9.984375 -14.390625 C 11.160156 -14.296875 12 -13.726562 12.5 -12.6875 C 12.664062 -12.300781 12.929688 -12.242188 13.296875 -12.515625 C 13.671875 -12.796875 14.164062 -13.117188 14.78125 -13.484375 C 15.40625 -13.859375 16.085938 -14.113281 16.828125 -14.25 C 18.597656 -14.613281 20.113281 -14.15625 21.375 -12.875 C 21.9375 -12.25 22.484375 -11.5625 23.015625 -10.8125 C 23.066406 -10.75 23.117188 -10.679688 23.171875 -10.609375 C 23.316406 -10.410156 23.457031 -10.195312 23.59375 -9.96875 C 23.6875 -9.769531 23.800781 -9.5625 23.9375 -9.34375 C 24.5 -8.613281 25.09375 -8.238281 25.71875 -8.21875 C 26.34375 -8.207031 26.960938 -8.398438 27.578125 -8.796875 C 28.203125 -9.203125 28.804688 -9.660156 29.390625 -10.171875 C 29.847656 -10.566406 30.269531 -10.894531 30.65625 -11.15625 C 31.039062 -11.425781 31.40625 -11.5625 31.75 -11.5625 Z M 31.75 -11.5625 "/></g></g></g><g fill="#7ed957" fill-opacity="1"><g transform="translate(328.313771, 224.861733)"><g><path d="M 19.4375 -11.015625 C 20.113281 -11.660156 20.675781 -11.785156 21.125 -11.390625 C 21.570312 -11.003906 21.566406 -10.273438 21.109375 -9.203125 C 20.054688 -7.160156 18.707031 -5.242188 17.0625 -3.453125 C 15.425781 -1.671875 13.5625 -0.359375 11.46875 0.484375 C 10.570312 0.773438 9.660156 0.921875 8.734375 0.921875 C 7.816406 0.921875 6.90625 0.804688 6 0.578125 C 5.113281 0.378906 4.375 0.00390625 3.78125 -0.546875 C 3.195312 -1.109375 2.691406 -1.757812 2.265625 -2.5 C 0.984375 -4.925781 0.171875 -8.410156 -0.171875 -12.953125 C -0.523438 -17.503906 -0.5625 -22.472656 -0.28125 -27.859375 C 0 -33.253906 0.441406 -38.421875 1.046875 -43.359375 C 1.660156 -48.304688 2.28125 -52.390625 2.90625 -55.609375 C 3.207031 -56.953125 3.664062 -58.226562 4.28125 -59.4375 C 4.957031 -60.6875 5.992188 -61.257812 7.390625 -61.15625 C 8.710938 -61.15625 9.625 -60.535156 10.125 -59.296875 C 10.65625 -57.710938 10.960938 -56.09375 11.046875 -54.4375 C 11.296875 -50.539062 11.1875 -46.664062 10.71875 -42.8125 C 10.257812 -39.082031 9.675781 -35.59375 8.96875 -32.34375 C 8.257812 -29.101562 7.519531 -25.925781 6.75 -22.8125 C 5.78125 -19.007812 4.859375 -15.023438 3.984375 -10.859375 C 4.015625 -10.429688 4.0625 -10.050781 4.125 -9.71875 C 4.226562 -8.539062 4.382812 -7.519531 4.59375 -6.65625 C 4.8125 -5.800781 5.28125 -4.75 6 -3.5 C 6.675781 -2.320312 7.523438 -1.695312 8.546875 -1.625 C 9.566406 -1.5625 10.613281 -1.847656 11.6875 -2.484375 C 12.769531 -3.128906 13.757812 -3.898438 14.65625 -4.796875 C 15.5625 -5.691406 16.265625 -6.503906 16.765625 -7.234375 C 16.898438 -7.429688 17.15625 -7.800781 17.53125 -8.34375 C 17.90625 -8.882812 18.273438 -9.414062 18.640625 -9.9375 C 19.003906 -10.457031 19.269531 -10.816406 19.4375 -11.015625 Z M 3.53125 -23.15625 C 3.957031 -24.269531 4.390625 -26.054688 4.828125 -28.515625 C 5.273438 -30.984375 5.671875 -33.726562 6.015625 -36.75 C 6.367188 -39.78125 6.632812 -42.664062 6.8125 -45.40625 C 7 -48.144531 7.066406 -50.332031 7.015625 -51.96875 C 6.960938 -53.613281 6.753906 -54.304688 6.390625 -54.046875 C 5.859375 -51.734375 5.507812 -49.582031 5.34375 -47.59375 C 5.226562 -46.550781 5.070312 -45.007812 4.875 -42.96875 C 4.476562 -39.40625 4.113281 -35.613281 3.78125 -31.59375 C 3.445312 -27.582031 3.363281 -24.769531 3.53125 -23.15625 Z M 3.53125 -23.15625 "/></g></g></g><g fill="#00bf63" fill-opacity="1"><g transform="translate(213.381816, 238.551781)"><g><path d="M 8.03125 -3.796875 C 8.164062 -4.578125 7.785156 -5.171875 6.890625 -5.578125 L 5 -6.328125 C 2.8125 -7.304688 1.773438 -8.648438 1.890625 -10.359375 C 1.929688 -11.148438 2.1875 -11.851562 2.65625 -12.46875 C 3.132812 -13.082031 3.800781 -13.5625 4.65625 -13.90625 C 5.519531 -14.257812 6.453125 -14.429688 7.453125 -14.421875 C 8.828125 -14.390625 9.9375 -13.976562 10.78125 -13.1875 C 11.625 -12.394531 12.039062 -11.335938 12.03125 -10.015625 L 9.1875 -10.015625 C 9.21875 -10.660156 9.070312 -11.160156 8.75 -11.515625 C 8.4375 -11.867188 7.945312 -12.054688 7.28125 -12.078125 C 6.632812 -12.085938 6.066406 -11.9375 5.578125 -11.625 C 5.097656 -11.3125 4.816406 -10.890625 4.734375 -10.359375 C 4.609375 -9.640625 5.082031 -9.070312 6.15625 -8.65625 L 7.4375 -8.171875 L 8.1875 -7.828125 C 10.101562 -6.878906 11 -5.546875 10.875 -3.828125 C 10.820312 -2.984375 10.554688 -2.257812 10.078125 -1.65625 C 9.597656 -1.050781 8.945312 -0.582031 8.125 -0.25 C 7.300781 0.0703125 6.394531 0.222656 5.40625 0.203125 C 4.394531 0.179688 3.492188 -0.0234375 2.703125 -0.421875 C 1.921875 -0.828125 1.320312 -1.398438 0.90625 -2.140625 C 0.519531 -2.828125 0.34375 -3.609375 0.375 -4.484375 L 3.234375 -4.46875 C 3.140625 -2.925781 3.898438 -2.144531 5.515625 -2.125 C 6.203125 -2.125 6.769531 -2.273438 7.21875 -2.578125 C 7.675781 -2.878906 7.945312 -3.285156 8.03125 -3.796875 Z M 8.03125 -3.796875 "/></g></g></g><g fill="#00bf63" fill-opacity="1"><g transform="translate(226.298604, 238.551781)"><g><path d="M 6.578125 -1.09375 C 5.796875 -0.21875 4.820312 0.210938 3.65625 0.203125 C 2.644531 0.179688 1.878906 -0.179688 1.359375 -0.890625 C 0.835938 -1.609375 0.632812 -2.554688 0.75 -3.734375 L 1.890625 -10.5625 L 4.65625 -10.5625 L 3.484375 -3.703125 C 3.460938 -3.484375 3.460938 -3.28125 3.484375 -3.09375 C 3.546875 -2.445312 3.90625 -2.113281 4.5625 -2.09375 C 5.414062 -2.0625 6.125 -2.390625 6.6875 -3.078125 L 8 -10.5625 L 10.765625 -10.5625 L 8.9375 0 L 6.375 0 Z M 6.578125 -1.09375 "/></g></g></g><g fill="#00bf63" fill-opacity="1"><g transform="translate(238.151355, 238.551781)"><g><path d="M 6.140625 0 C 6.054688 -0.269531 6.019531 -0.585938 6.03125 -0.953125 C 5.238281 -0.160156 4.34375 0.222656 3.34375 0.203125 C 2.414062 0.179688 1.644531 -0.117188 1.03125 -0.703125 C 0.425781 -1.296875 0.144531 -2.023438 0.1875 -2.890625 C 0.226562 -4.046875 0.707031 -4.929688 1.625 -5.546875 C 2.550781 -6.160156 3.789062 -6.46875 5.34375 -6.46875 L 6.625 -6.453125 L 6.765625 -7.078125 C 6.804688 -7.296875 6.816406 -7.503906 6.796875 -7.703125 C 6.765625 -8.003906 6.648438 -8.238281 6.453125 -8.40625 C 6.253906 -8.582031 5.992188 -8.675781 5.671875 -8.6875 C 5.234375 -8.695312 4.863281 -8.585938 4.5625 -8.359375 C 4.269531 -8.140625 4.082031 -7.816406 4 -7.390625 L 1.234375 -7.390625 C 1.273438 -8.390625 1.738281 -9.203125 2.625 -9.828125 C 3.507812 -10.460938 4.597656 -10.773438 5.890625 -10.765625 C 7.085938 -10.734375 8.023438 -10.375 8.703125 -9.6875 C 9.378906 -9 9.660156 -8.117188 9.546875 -7.046875 L 8.734375 -1.984375 L 8.6875 -1.359375 C 8.675781 -0.898438 8.734375 -0.507812 8.859375 -0.1875 L 8.84375 0 Z M 4.03125 -1.9375 C 4.820312 -1.914062 5.515625 -2.265625 6.109375 -2.984375 L 6.453125 -4.8125 L 5.484375 -4.8125 C 4.472656 -4.789062 3.742188 -4.484375 3.296875 -3.890625 C 3.128906 -3.671875 3.023438 -3.40625 2.984375 -3.09375 C 2.929688 -2.738281 3.003906 -2.457031 3.203125 -2.25 C 3.398438 -2.050781 3.675781 -1.945312 4.03125 -1.9375 Z M 4.03125 -1.9375 "/></g></g></g><g fill="#00bf63" fill-opacity="1"><g transform="translate(249.545301, 238.551781)"><g/></g></g><g fill="#00bf63" fill-opacity="1"><g transform="translate(255.375015, 238.551781)"><g><path d="M 4.65625 -2.078125 C 5.164062 -2.054688 5.585938 -2.191406 5.921875 -2.484375 C 6.265625 -2.773438 6.488281 -3.160156 6.59375 -3.640625 L 9.1875 -3.65625 C 9.132812 -2.914062 8.898438 -2.25 8.484375 -1.65625 C 8.066406 -1.0625 7.503906 -0.597656 6.796875 -0.265625 C 6.097656 0.0664062 5.363281 0.222656 4.59375 0.203125 C 3.3125 0.179688 2.296875 -0.257812 1.546875 -1.125 C 0.796875 -1.988281 0.429688 -3.140625 0.453125 -4.578125 L 0.484375 -5.125 L 0.5 -5.21875 C 0.675781 -6.9375 1.253906 -8.300781 2.234375 -9.3125 C 3.222656 -10.320312 4.4375 -10.804688 5.875 -10.765625 C 7.070312 -10.734375 8.019531 -10.34375 8.71875 -9.59375 C 9.414062 -8.84375 9.757812 -7.851562 9.75 -6.625 L 7.171875 -6.625 C 7.171875 -7.1875 7.046875 -7.628906 6.796875 -7.953125 C 6.554688 -8.285156 6.1875 -8.460938 5.6875 -8.484375 C 4.375 -8.523438 3.578125 -7.566406 3.296875 -5.609375 C 3.203125 -4.898438 3.164062 -4.300781 3.1875 -3.8125 C 3.257812 -2.664062 3.75 -2.085938 4.65625 -2.078125 Z M 4.65625 -2.078125 "/></g></g></g><g fill="#00bf63" fill-opacity="1"><g transform="translate(266.485872, 238.551781)"><g><path d="M 2.9375 0 L 0.171875 0 L 2.78125 -15 L 5.53125 -15 Z M 2.9375 0 "/></g></g></g><g fill="#00bf63" fill-opacity="1"><g transform="translate(272.627967, 238.551781)"><g><path d="M 3 0 L 0.25 0 L 2.078125 -10.5625 L 4.828125 -10.5625 Z M 4.625 -14.859375 L 7.828125 -14.859375 L 4.71875 -11.828125 L 2.28125 -11.828125 Z M 4.625 -14.859375 "/></g></g></g><g fill="#00bf63" fill-opacity="1"><g transform="translate(278.936013, 238.551781)"><g><path d="M 4.390625 -10.578125 L 4.15625 -9.328125 C 5 -10.304688 6.023438 -10.785156 7.234375 -10.765625 C 8.222656 -10.742188 8.953125 -10.378906 9.421875 -9.671875 C 9.898438 -8.960938 10.078125 -7.976562 9.953125 -6.71875 L 8.84375 0 L 6.078125 0 L 7.21875 -6.75 C 7.25 -7 7.253906 -7.226562 7.234375 -7.4375 C 7.148438 -8.101562 6.734375 -8.445312 5.984375 -8.46875 C 5.265625 -8.488281 4.617188 -8.15625 4.046875 -7.46875 L 2.71875 0 L -0.03125 0 L 1.8125 -10.5625 Z M 4.390625 -10.578125 "/></g></g></g><g fill="#00bf63" fill-opacity="1"><g transform="translate(290.798528, 238.551781)"><g><path d="M 2.9375 0 L 0.171875 0 L 2 -10.5625 L 4.78125 -10.5625 Z M 2.328125 -13.25 C 2.316406 -13.6875 2.457031 -14.046875 2.75 -14.328125 C 3.050781 -14.617188 3.414062 -14.765625 3.84375 -14.765625 C 4.257812 -14.773438 4.617188 -14.644531 4.921875 -14.375 C 5.222656 -14.113281 5.382812 -13.769531 5.40625 -13.34375 C 5.414062 -12.945312 5.28125 -12.597656 5 -12.296875 C 4.71875 -11.992188 4.347656 -11.835938 3.890625 -11.828125 C 3.472656 -11.816406 3.109375 -11.941406 2.796875 -12.203125 C 2.492188 -12.460938 2.335938 -12.8125 2.328125 -13.25 Z M 2.328125 -13.25 "/></g></g></g><g fill="#00bf63" fill-opacity="1"><g transform="translate(296.940623, 238.551781)"><g><path d="M 4.65625 -2.078125 C 5.164062 -2.054688 5.585938 -2.191406 5.921875 -2.484375 C 6.265625 -2.773438 6.488281 -3.160156 6.59375 -3.640625 L 9.1875 -3.65625 C 9.132812 -2.914062 8.898438 -2.25 8.484375 -1.65625 C 8.066406 -1.0625 7.503906 -0.597656 6.796875 -0.265625 C 6.097656 0.0664062 5.363281 0.222656 4.59375 0.203125 C 3.3125 0.179688 2.296875 -0.257812 1.546875 -1.125 C 0.796875 -1.988281 0.429688 -3.140625 0.453125 -4.578125 L 0.484375 -5.125 L 0.5 -5.21875 C 0.675781 -6.9375 1.253906 -8.300781 2.234375 -9.3125 C 3.222656 -10.320312 4.4375 -10.804688 5.875 -10.765625 C 7.070312 -10.734375 8.019531 -10.34375 8.71875 -9.59375 C 9.414062 -8.84375 9.757812 -7.851562 9.75 -6.625 L 7.171875 -6.625 C 7.171875 -7.1875 7.046875 -7.628906 6.796875 -7.953125 C 6.554688 -8.285156 6.1875 -8.460938 5.6875 -8.484375 C 4.375 -8.523438 3.578125 -7.566406 3.296875 -5.609375 C 3.203125 -4.898438 3.164062 -4.300781 3.1875 -3.8125 C 3.257812 -2.664062 3.75 -2.085938 4.65625 -2.078125 Z M 4.65625 -2.078125 "/></g></g></g><g fill="#00bf63" fill-opacity="1"><g transform="translate(308.05148, 238.551781)"><g><path d="M 6.140625 0 C 6.054688 -0.269531 6.019531 -0.585938 6.03125 -0.953125 C 5.238281 -0.160156 4.34375 0.222656 3.34375 0.203125 C 2.414062 0.179688 1.644531 -0.117188 1.03125 -0.703125 C 0.425781 -1.296875 0.144531 -2.023438 0.1875 -2.890625 C 0.226562 -4.046875 0.707031 -4.929688 1.625 -5.546875 C 2.550781 -6.160156 3.789062 -6.46875 5.34375 -6.46875 L 6.625 -6.453125 L 6.765625 -7.078125 C 6.804688 -7.296875 6.816406 -7.503906 6.796875 -7.703125 C 6.765625 -8.003906 6.648438 -8.238281 6.453125 -8.40625 C 6.253906 -8.582031 5.992188 -8.675781 5.671875 -8.6875 C 5.234375 -8.695312 4.863281 -8.585938 4.5625 -8.359375 C 4.269531 -8.140625 4.082031 -7.816406 4 -7.390625 L 1.234375 -7.390625 C 1.273438 -8.390625 1.738281 -9.203125 2.625 -9.828125 C 3.507812 -10.460938 4.597656 -10.773438 5.890625 -10.765625 C 7.085938 -10.734375 8.023438 -10.375 8.703125 -9.6875 C 9.378906 -9 9.660156 -8.117188 9.546875 -7.046875 L 8.734375 -1.984375 L 8.6875 -1.359375 C 8.675781 -0.898438 8.734375 -0.507812 8.859375 -0.1875 L 8.84375 0 Z M 4.03125 -1.9375 C 4.820312 -1.914062 5.515625 -2.265625 6.109375 -2.984375 L 6.453125 -4.8125 L 5.484375 -4.8125 C 4.472656 -4.789062 3.742188 -4.484375 3.296875 -3.890625 C 3.128906 -3.671875 3.023438 -3.40625 2.984375 -3.09375 C 2.929688 -2.738281 3.003906 -2.457031 3.203125 -2.25 C 3.398438 -2.050781 3.675781 -1.945312 4.03125 -1.9375 Z M 4.03125 -1.9375 "/></g></g></g></svg>